# xmcd
#
# Track frame offsets:
#	150
#	20400
#	39202
#	62238
#	79662
#	97295
#	110222
#	114592
#	133693
#	171914
#	194373
#	208560
#	223404
#	247545
#	259340
#	276651
#	296292
#	317537
#	333324
#
# Disc length: 4759 seconds
#
# Revision: 1
# Processed by: cddbd v1.5.2PL0 Copyright (c) Steve Scherf et al.
# Submitted via: EZCDAudioConverter 4.0.1.1
#
DISCID=25129513
DTITLE=The Rowans - Sibling Rivalry-Jubilation
DYEAR=1900
DGENRE=Country
TTITLE0=Ooh My Love
TTITLE1=Love Is
TTITLE2=Tired Hands
TTITLE3=If I Only Could
TTITLE4=No Desamines Amor (Don't Disappoint Love)
TTITLE5=Ya Ba Da Ba
TTITLE6=Fire Dragon
TTITLE7=Mongolian Swamp-King's Men
TTITLE8=Joaquin Murrieta
TTITLE9=Sword of Faith-Soldier Of The Cross
TTITLE10=Best Of Friends
TTITLE11=Give Ya Good Lovin'
TTITLE12=Hoo Doo Love
TTITLE13=Love's Secret Sighs
TTITLE14=Don't Say Goodbye
TTITLE15=Lovelight
TTITLE16=New Horizons
TTITLE17=Makin' It Easy
TTITLE18=Calle Music
EXTD=
EXTT0=
EXTT1=
EXTT2=
EXTT3=
EXTT4=
EXTT5=
EXTT6=
EXTT7=
EXTT8=
EXTT9=
EXTT10=
EXTT11=
EXTT12=
EXTT13=
EXTT14=
EXTT15=
EXTT16=
EXTT17=
EXTT18=
PLAYORDER=
